<svg xmlns="http://www.w3.org/2000/svg" width="1254" height="1254"><path fill="#0F67FD" d="M0 0h1254v1254H0z"/><path fill="#F7F6F6" d="M0 0h1254v1254H0zm545 55-2.887.445c-11.069 1.726-21.896 3.847-32.693 6.844-4.055 1.12-7.99 2.033-12.17 2.586-8.078 1.177-15.802 3.928-23.566 6.371a274 274 0 0 1-11.336 3.29C450.258 77.785 438.634 82.415 427 87l-2.895 1.14c-14.65 5.832-28.812 12.518-42.918 19.548l-2.452 1.216c-9.9 4.926-19.415 10.13-28.735 16.096q-2.172 1.347-4.348 2.688C314.385 147.114 285.167 169.149 258 194l-2.91 2.629c-6.48 5.883-12.765 11.944-18.965 18.121L234 216.861a231 231 0 0 0-11.37 12.268c-1.93 2.215-3.933 4.35-5.952 6.484-6.194 6.56-11.791 13.451-17.285 20.6a276 276 0 0 1-4.256 5.303c-33.413 40.797-63.164 90.983-80.008 141.203-1.113 3.234-2.339 6.4-3.603 9.576-6.939 17.453-12.371 35.14-16.92 53.357a158 158 0 0 1-1.622 5.75c-1.71 6.253-2.815 12.636-4.04 18.998-1.03 5.266-2.137 10.479-3.48 15.674C71.485 560.98 73.007 627.066 80 683l.245 1.986c.79 6.363 1.573 12.658 3.13 18.889 1.322 5.347 2.197 10.689 3.008 16.136 1.44 9.664 3.156 18.765 6.324 28.005 1.89 5.583 3.171 11.336 4.506 17.073 1.171 4.908 2.77 9.27 4.787 13.911.927 2.955 1.716 5.942 2.5 8.938 1.534 5.833 3.298 11.446 5.5 17.062.4 1.069.8 2.137 1.21 3.238a262 262 0 0 0 7.606 18.074c1.205 2.736 2.207 5.489 3.184 8.313 1.523 4.328 3.394 8.179 5.754 12.11 1.294 2.352 2.325 4.766 3.364 7.239 17.71 40.683 43.317 78.116 71.426 112.25a561 561 0 0 1 3.854 4.768c5.423 6.754 11.209 13.096 17.123 19.416 2.25 2.422 4.453 4.887 6.667 7.342 4.712 5.144 9.576 10.121 14.5 15.063l2.123 2.137c4 3.989 8.104 7.796 12.383 11.484 2.363 2.05 4.643 4.183 6.931 6.316 5.206 4.747 10.648 9.098 16.219 13.406 3.058 2.366 6.066 4.788 9.066 7.227 14.078 11.414 28.81 21.677 44.242 31.172 2.31 1.421 4.612 2.854 6.914 4.289 36.648 22.743 75.65 41.416 116.914 54.066 2.795.865 5.566 1.767 8.332 2.715 3.032 1.025 6.078 1.914 9.168 2.746q6.063 1.639 12.114 3.313c31.762 8.733 63.984 14.413 96.906 16.316l2.089.126c13.102.78 26.162 1.04 39.286.999l2.859-.007c61.271-.168 121.063-11.116 178.986-31.158q3.519-1.213 7.05-2.394c7.15-2.447 13.954-5.427 20.761-8.687 4.201-2.007 8.457-3.88 12.719-5.754q4.63-2.053 9.25-4.125l2.28-1.022c24.959-11.272 49.224-25.362 71.72-40.978l1.859-1.278c14.983-10.319 29.389-21.34 43.184-33.202 2.86-2.438 5.773-4.796 8.707-7.145 4.332-3.52 8.263-7.282 12.156-11.277 1.864-1.867 3.768-3.584 5.782-5.285 8.415-7.233 16.382-15.302 23.55-23.77 1.853-2.148 3.77-4.229 5.7-6.307 4.727-5.094 9.263-10.284 13.62-15.7a647 647 0 0 1 5.54-6.79c6.508-7.891 12.705-15.899 18.537-24.301a472 472 0 0 1 4.533-6.316c9.153-12.696 17.165-25.925 24.996-39.46q1.85-3.193 3.723-6.373c3.226-5.476 6.334-10.954 9.113-16.671l2.02-4.102.998-2.036a481 481 0 0 1 2.869-5.698c3.238-6.363 6.194-12.739 8.863-19.36 1.305-3.058 2.78-5.978 4.313-8.929 2.469-4.844 4.26-9.65 5.882-14.832 1.154-3.467 2.523-6.796 3.93-10.168 2.867-6.93 5.044-14.01 7.12-21.21l.708-2.454.614-2.17c.683-2.166.683-2.166 1.674-4.626 3.623-9.119 5.57-19.05 8.009-28.54l.512-1.99c6.914-26.96 11.63-54.014 14.09-81.752.373-4.186.906-8.343 1.46-12.508 2.289-18.215 2.153-36.429 1.938-54.75l-.038-3.468c.892-54.238.892-54.238-12.962-102.532a96 96 0 0 1-.75-4.25c-1.02-5.844-2.324-11.603-3.687-17.375l-.623-2.673c-1.356-5.686-3.037-11.178-4.94-16.702a710 710 0 0 1-1.875-6.062l-1.027-3.344q-1.154-3.78-2.29-7.563c-2.204-7.276-4.638-14.273-7.671-21.258-1.707-4.163-2.956-8.435-4.137-12.773h-2l-.297-1.687c-.953-4.865-2.31-8.881-4.644-13.243-1.11-2.171-1.996-4.357-2.871-6.632-5.37-13.64-12.275-26.537-19.188-39.438l-1.621-3.055C1095.812 310.52 1081.285 288.011 1065 267l-1.271-1.65c-9.422-12.206-19.28-24.006-29.729-35.35l-1.592-1.729c-7.15-7.743-14.408-15.367-21.845-22.833l-1.932-1.946c-3.812-3.8-7.744-7.405-11.816-10.922-2.246-1.943-4.436-3.942-6.628-5.945-4.262-3.842-8.63-7.516-13.093-11.121a654 654 0 0 1-6.75-5.54C960.89 162.136 951.134 154.923 941 148l-2.099-1.447c-29.809-20.521-61.533-37.546-94.465-52.448a623 623 0 0 1-5.624-2.59c-9.205-4.142-18.711-7.245-28.306-10.356-9.583-3.116-9.583-3.116-13.272-4.78-3.941-1.68-7.897-2.72-12.047-3.754-9.964-2.535-9.964-2.535-14.234-3.812-22.18-6.61-45.18-10.542-68.015-14.126l-2.326-.372c-22.924-3.645-45.8-4.67-68.987-4.565l-3.68.008c-27.804.074-55.439.863-82.945 5.242"/><path fill="#FCFDFD" d="M629.93 285.684c3.8.003 7.598-.02 11.398-.045 13.98-.037 27.46.686 41.256 2.967 3.032.494 6.072.922 9.116 1.346 2.729.381 5.454.785 8.18 1.19q2.01.298 4.022.585c10.231 1.462 20.115 3.608 30.098 6.273l3.534.928c3.283.867 6.563 1.748 9.841 2.635l3.285.88c17.135 4.62 17.135 4.62 25.428 7.82 1.915.738 3.84 1.439 5.771 2.132 8.352 3.029 16.27 6.452 24.141 10.605a236 236 0 0 0 15 7l6 3v139c-4.51-1.503-8.067-2.958-12.191-5.16q-1.791-.948-3.583-1.893l-1.874-.995C796.82 457.312 784.169 451.288 771 446l-2.362-.968c-19.225-7.818-38.924-14.045-59.192-18.47-2.709-.622-5.393-1.32-8.083-2.019-21.338-5.342-42.742-7.042-64.676-7.105l-2.955-.026c-27.569-.171-54.818 4.76-75.67 24.026-9.552 10.24-11.756 21.296-11.433 34.824.351 6.313 2.16 11.309 5.371 16.738l1.656 2.82c10.119 15.392 27.852 24.409 44.93 29.977a89 89 0 0 1 7.668 3.125c4.988 2.254 10.088 3.947 15.308 5.578l2.901.917a282 282 0 0 0 21.03 5.661c3.192.84 6.19 1.915 9.266 3.106 4.484 1.633 9.092 2.88 13.678 4.191q4.563 1.314 9.123 2.632 3.628 1.047 7.259 2.083c11.669 3.357 23.187 7.125 34.681 11.035l2.925.995c15.235 5.203 30.11 10.769 44.575 17.88l2.614 1.275c14.42 7.113 27.985 15.448 40.386 25.725l1.59 1.304c7.757 6.39 15.063 12.859 21.41 20.696l1.251 1.522c23.892 29.445 34.218 65.866 34.124 103.29l-.003 2.595c-.172 51.3-18.992 97.117-55.099 133.327C800.435 884.971 785.74 894.891 770 903l-3.066 1.598c-8.526 4.367-17.177 8.105-26.121 11.527l-2.05.789c-10 3.835-19.971 7.26-30.445 9.57a378 378 0 0 0-7.49 1.774c-23.523 5.594-47.666 8.405-71.828 8.742l-4.02.078c-54.89 1.023-113.708-5.106-164.835-26.207-2.594-1.053-5.223-1.916-7.895-2.746C435.9 902.73 420.371 894.685 405 887V742h2v2l2.098.727c3.416 1.499 6.303 3.515 9.34 5.648 26.763 18.238 58.134 32.903 89.209 41.928 2.261.67 4.491 1.4 6.724 2.158 5.522 1.861 11.102 3.518 16.692 5.164l3.142.945c5.632 1.657 10.963 2.812 16.795 3.43l1 1c2.014.352 4.037.656 6.063.938 3.682.539 7.287 1.067 10.875 2.062 13.862 3.59 27.892 3.34 42.11 3.316 3.745-.003 7.49.02 11.235.045 15.1.041 29.692-.056 43.919-5.68 2.567-.972 5.206-1.614 7.86-2.306 15.112-4.628 28.949-14.554 36.622-28.566 5.771-12.314 9.222-25.37 5.066-38.809a99 99 0 0 0-1.75-4l-.773-1.965C707.62 717.046 695.159 708.293 683 702l-3.005-1.593c-8.446-4.374-16.918-7.689-25.995-10.594l-3.79-1.249c-11.9-3.886-23.937-7.246-36.023-10.501-6.933-1.882-13.854-3.797-20.75-5.813l-2.071-.601c-3.543-1.047-6.94-2.278-10.366-3.649a314 314 0 0 0-6.187-1.75c-7.847-2.214-15.56-4.751-23.275-7.386-2.684-.914-5.373-1.812-8.061-2.712C495.263 639.88 446.954 615.247 419 571l-1.146-1.762C408.212 554.291 402.062 536.261 398 519l-.793-3.318c-2.255-10.497-2.61-20.625-2.488-31.339.031-2.801.04-5.602.047-8.404l.03-5.435.014-2.491c.183-15.006.183-15.006 2.19-17.013.207-1.495.367-2.997.5-4.5.389-4.389.389-4.389 1.5-5.5.324-1.87.61-3.746.875-5.625.785-4.907 2.025-8.851 4.125-13.375a451 451 0 0 0 1.688-5.375C411.887 397.887 422.13 379.934 435 365q1.332-1.619 2.656-3.242c4.456-5.423 8.904-10.632 14.348-15.102 2.261-1.876 4.36-3.888 6.496-5.906 22.149-19.917 51.63-34.602 80.25-42.25l2.347-.635q2.355-.635 4.709-1.267a333 333 0 0 0 5.842-1.664c7.657-2.194 15.315-3.735 23.164-5.059l2.835-.48c3.113-.504 6.23-.957 9.353-1.395l3.76-.55c13.024-1.762 26.046-1.788 39.17-1.766"/><path fill="#F4F3F2" d="M1170 1031h28l1 27 27 1v28c-6.652.03-6.652.03-13.437.063l-4.244.027-3.315.008-3.412.016C1199 1087 1199 1087 1198 1086c-.088-2-.107-4.002-.098-6.004l.008-3.315.027-4.244L1198 1059l-27 1-1 27-27 1v25c3.356.84 6.008 1.184 9.422 1.316l3.105.127 3.223.12 3.27.13q3.99.159 7.98.307c.029 4.48.047 8.958.063 13.438l.025 3.876.01 3.682.016 3.412C1170 1142 1170 1142 1169 1143a120 120 0 0 1-5.785.316l-3.192.116-4.085.13L1143 1144l-1 26q-6.72.04-13.437.063l-3.877.025-3.682.01-3.412.016C1115 1170 1115 1170 1114 1169a115 115 0 0 1-.098-5.785l.008-3.192.027-4.085L1114 1143l-27 1-1 26q-6.72.04-13.437.063l-3.877.025-3.682.01-3.412.016C1059 1170 1059 1170 1058 1169a115 115 0 0 1-.098-5.785l.008-3.192.027-4.085L1058 1143h-27c.04 8.512.04 8.512.09 17.023l.008 3.192.016 3.285c-.114 2.5-.114 2.5-1.114 3.5a120 120 0 0 1-5.785.316l-3.545.127-3.732.12-3.745.13q-4.596.16-9.193.307l-.076 2.37c-.115 3.523-.238 7.045-.361 10.568l-.12 3.732-.127 3.545-.11 3.285c-.206 2.5-.206 2.5-1.206 3.5-2 .088-4.002.107-6.004.098l-3.682-.01-3.876-.025-3.89-.014q-4.773-.018-9.548-.049-.042-6.72-.062-13.437l-.026-3.877-.01-3.682-.016-3.412C975 1171 975 1171 976 1170c1.927-.087 3.857-.107 5.785-.098l3.192.008 4.086.027L1002 1170v-27c-9.434-.088-18.6.202-28 1-.058-4.458-.094-8.916-.125-13.375-.017-1.271-.034-2.542-.05-3.852l-.02-3.671-.032-3.396C974 1117 974 1117 976 1115c2.614-.319 2.614-.319 5.883-.414l3.184-.108 4.058-.103L1002 1114l1-27h27c1.127 9.016 1.127 9.016 1.133 12.902l.004 2.506-.012 2.53.012 2.61c-.01 6.325-.01 6.325-1.137 7.452-2 .088-4.002.107-6.004.098l-3.315-.008-4.244-.027L1003 1115v28l27-1c-.04-8.512-.04-8.512-.09-17.023l-.008-3.192-.016-3.285c.114-2.5.114-2.5 1.114-3.5 2.586-.095 5.146-.126 7.733-.114h2.453c2.69 0 5.379.009 8.068.016l5.578.005q7.356.006 14.712.024 7.5.014 15 .02 14.73.016 29.456.049l-.016-2.463q-.029-5.487-.046-10.975l-.026-3.876-.01-3.682-.016-3.412C1114 1088 1114 1088 1115 1087c2-.088 4.002-.107 6.004-.098l3.682.01 3.877.025 3.888.014q4.774.018 9.549.049l-.016-2.463q-.029-5.487-.046-10.975l-.026-3.876-.01-3.682-.016-3.412C1142 1060 1142 1060 1143 1059c2-.088 4.002-.107 6.004-.098l3.315.008 4.244.027L1170 1059z"/><path fill="#FDFDFD" d="m1201.592 919.886 3.412.016 3.315.008 4.243.027L1226 920v28l-12.875.062-4.058.028-3.184.008-3.27.016C1200 948 1200 948 1198 947c-.029-4.312-.047-8.625-.063-12.938l-.025-3.732-.01-3.545-.016-3.285c.156-3.425.273-3.463 3.706-3.614m-84 28 3.412.016 3.682.01 3.876.025 3.89.014q4.773.018 9.548.049c.199 3.187.382 6.375.562 9.562l.17 2.713.147 2.666.143 2.428c-.027 3.228-.565 6.435-1.022 9.631h-28l-.063-12.938-.027-4.085-.008-3.192-.016-3.285c.156-3.425.273-3.463 3.706-3.614M1198 947v28l-28 1v27h-28l-.063-12.938-.027-4.085-.008-3.192-.016-3.285c.114-2.5.114-2.5 1.114-3.5 6.03-.98 11.901-1.123 18-1.063l2.637.014q3.18.02 6.363.049l-.016-2.263q-.029-5.055-.047-10.112l-.025-3.563-.01-3.398-.016-3.142C1170 950 1170 950 1171 948l12.937-.5 3.733-.145 3.545-.136 3.285-.127c2.5-.092 2.5-.092 3.5-.092m-108.408 27.886 3.412.016 3.315.008 4.243.027L1114 975l1 27 27 1 1 27 27 1v28l-27 1-1 27-27 1-1 27h-28l-.063-13.438-.027-4.243-.008-3.315-.016-3.412C1086 1088 1086 1088 1087 1087c2-.088 4.002-.107 6.004-.098l3.682.01 3.876.025 3.89.014q4.773.018 9.548.049l-.016-2.463q-.029-5.487-.047-10.975l-.025-3.876-.01-3.682-.016-3.412C1114 1060 1114 1060 1115 1059c2-.088 4.002-.107 6.004-.098l3.315.008 4.243.027L1142 1059v-28h-28v-28h-28l-.063-13.438-.027-4.243-.008-3.315-.016-3.412c.153-3.49.216-3.553 3.706-3.706M1198 975l13.437-.063 4.244-.027 3.315-.008 3.412-.016C1225 975 1225 975 1226 976c.088 2 .107 4.002.098 6.004l-.008 3.315-.028 4.243L1226 1003l-27 1-1 27h-28v-28h28zm-112 56h28v28h-28z"/><path fill="#F5F4F4" d="M752 1155q.039 3.468.063 6.938l.035 3.902C752 1169 752 1169 751 1170c-1.927.087-3.857.107-5.785.098l-3.192-.008-4.086-.027L725 1170l-1 28-26 1c-.87 6.073-.87 6.073-1.098 12.059l.008 2.408.028 2.97L697 1226h27v28h-83v-28h-28l-.062-13.437-.028-4.244-.008-3.315-.016-3.412C613 1199 613 1199 614 1198c2-.088 4.002-.107 6.004-.098l3.315.008 4.244.027L641 1198v-27h-28v27h-27c-1.357-2.714-1.112-4.848-1.098-7.883l.008-3.184.028-4.058L585 1170h-27v-5c3.167.14 6.333.289 9.5.438l2.688.119 2.656.127 2.412.11c2.17.163 4.335.412 6.494.691 4.464.575 8.92.853 13.414 1.07l2.618.127c9.863.443 19.721.474 29.593.443l2.859-.007c38.896-.107 77.102-4.38 115.149-12.638C748 1155 748 1155 752 1155"/><path fill="#FBFAFA" d="M167 0h140v28h-28c.04 8.84.04 8.84.09 17.681l.008 3.315.016 3.412C279 55 279 55 278 56c-2 .088-4.002.107-6.004.098l-3.315-.008-4.243-.028L251 56v27c-2.747 1.374-4.817 1.013-7.883.879l-3.184-.13-4.058-.186L223 83V56l-27 1-1 26-7.25.563c-.726.06-1.452.122-2.2.185-6.24.434-12.337-.12-18.55-.748-.029-4.312-.047-8.625-.062-12.937l-.026-3.733-.01-3.545-.016-3.285C167 57 167 57 168 56a120 120 0 0 1 5.785-.316l3.192-.116 4.085-.13L194 55l1-27c-8.84.04-8.84.04-17.681.09l-3.315.008-3.412.016C168 28 168 28 167 27zm0 83v28h-27c-.668-3.341-1.127-5.763-1.133-9.031l-.004-2.207.012-2.262-.012-2.262.004-2.207.004-1.982c.152-2.412.613-4.691 1.129-7.049l16.67-.645 3.545-.136 3.285-.127C166 83 166 83 167 83"/><path fill="#F6F5F4" d="M1030 0h140v28l-27 1-1 26c-5.515.69-10.223 1.09-15.687 1-4.873-.12-4.873-.12-9.68.497-2.815.538-5.385.623-8.25.617h-3.335l-3.568-.016-3.677-.005c-3.872-.005-7.744-.018-11.616-.03q-3.94-.008-7.88-.014-9.653-.017-19.307-.049l-.076 2.37c-.115 3.523-.238 7.045-.361 10.568l-.12 3.732-.127 3.545-.11 3.285C1058 83 1058 83 1057 84c-2.102.102-4.208.13-6.312.125l-3.489.008c-5.41-.171-10.805-.683-16.199-1.133V56l11.25-.5 3.528-.158 2.8-.123 2.857-.127c2.187-.078 4.376-.092 6.565-.092V28h-27c-2.265-9.06-1-18.66-1-28"/><path fill="#FDFCFD" d="M112 279h27v27c-3.46.865-5.916 1.117-9.422 1.098l-2.8-.008-3.528-.027L112 307v27h27l-.062-8.437c-.024-6.267.142-12.351 1.062-18.563 6.952-2.317 14.858-.922 22 0-.578 3.816-1.664 6.502-3.668 9.79l-1.689 2.815-1.83 3.02c-5.55 9.31-10.739 18.736-15.688 28.375l-.94 1.83A2714 2714 0 0 0 133 363h-21l.035 4.637.028 6.05.025 3.053.01 2.96.016 2.713C112 385 112 385 111 390H83l.438-13.437.13-4.244.116-3.315.11-3.412C84 363 84 363 85 362c1.927-.087 3.857-.107 5.785-.098l3.192.008 4.085.027L111 362v-27H84l-1 27-10.125.563-3.157.185-2.538.13-2.571.144C62 363 62 363 56 362v-27l27-1 1-27c11.25-.437 11.25-.437 14.778-.568l2.8-.116 2.857-.11A32 32 0 0 0 111 305l-.016-1.74q-.029-3.943-.046-7.885l-.026-2.738-.01-2.676-.016-2.444c.13-2.86.643-5.693 1.114-8.517M59.5 389.886l3.285.016 3.545.01 3.733.026 3.744.013q4.596.018 9.193.049c1.374 2.747 1.013 4.817.879 7.883l-.13 3.184-.186 4.058L83 418l-26 1-1 27H28l-.062-13.437-.028-4.244-.008-3.315-.016-3.412C28 419 28 419 29 418c2-.088 4.002-.107 6.004-.098l3.682.01 3.877.026 3.888.013q4.775.018 9.549.049l-.016-2.463q-.029-5.487-.047-10.974l-.025-3.877-.01-3.682-.016-3.412c.15-3.433.189-3.55 3.614-3.706"/><path fill="#F3F2F2" d="M1058 83h28v28h28v28l-27 1-1 27-13.437.063-4.244.027-3.315.008-3.412.016C1059 167 1059 167 1058 166c-.088-2-.107-4.002-.098-6.004l.008-3.315.027-4.244L1058 139h-27c.04 8.84.04 8.84.09 17.681l.008 3.315.016 3.412C1031 166 1031 166 1030 167c-2 .088-4.002.107-6.004.098l-3.682-.01-3.876-.025-3.89-.014q-4.773-.018-9.548-.049-.042-6.72-.062-13.437l-.026-3.877-.01-3.682-.016-3.412C1003 140 1003 140 1004 139a120 120 0 0 1 5.785-.316l3.545-.127 3.732-.12 3.745-.13q4.596-.16 9.193-.307l.076-2.37c.115-3.523.238-7.045.361-10.567l.12-3.733.127-3.545.11-3.285c.206-2.5.206-2.5 1.206-3.5 1.927-.087 3.857-.107 5.785-.098l3.192.008 4.085.028L1058 111zm60.183-.243 2.684.013 2.934.005 3.074.037 3.05.002c4.294.026 7.88.137 12.075 1.186v27h-28l-.125-12.875-.055-4.058-.015-3.184-.032-3.27c.29-3.329 1.008-4.477 4.41-4.856"/><path fill="#FCFCFC" d="M161.23 918.797c3.841-.253 5.472-.03 8.547 2.371 2.083 2.653 3.984 5.294 5.785 8.145 3.381 5.19 6.961 10.177 10.688 15.125l1.537 2.042 1.479 1.954 1.407 1.883c1.423 1.87 1.423 1.87 3.702 4.074 2.459 3.947 1.823 7.414 1.375 11.922l-.2 2.533A401 401 0 0 1 195 975c-3.219 1.073-5.554 1.133-8.938 1.125l-3.152.008c-5.314-.18-10.612-.691-15.91-1.133v-27c-8.467.04-8.467.04-16.933.09l-3.184.008-3.27.016C141 948 141 948 139 947c-.029-4.312-.047-8.625-.063-12.937l-.025-3.733-.01-3.545-.016-3.285C139 921 139 921 140 920c3.026-.241 6.032-.424 9.062-.562l2.53-.131a346 346 0 0 1 5.002-.21 93 93 0 0 0 4.636-.3M139 947v28h-27l-.563-9.562-.185-2.971c-.271-5-.164-9.542.748-14.467 9.001-1.334 17.916-1.067 27-1m9.543 27.902 2.93.008 3.714.028L167 975v28h-27l-1 28h-27l-.063-13.437-.027-4.244-.008-3.315-.016-3.412C112 1004 112 1004 113 1003c1.927-.087 3.857-.107 5.785-.098l3.545.01 3.732.026 3.745.013q4.596.018 9.193.049l-.016-1.94q-.029-4.374-.047-8.747l-.025-3.053-.01-2.96-.016-2.713c.116-2.623.532-5.03 1.114-7.587 3.118-1.04 5.275-1.115 8.543-1.098"/><path fill="#F3F2F3" d="M131 362c1.308 3.924.366 5.004-1.352 8.707l-1.573 3.446-.842 1.812c-4.08 8.79-8.02 17.558-11.104 26.754-1.113 3.234-2.339 6.4-3.603 9.576-6.939 17.454-12.37 35.141-16.921 53.358a159 159 0 0 1-1.617 5.742c-1.44 5.251-2.444 10.575-3.488 15.918l-.645 3.263q-.629 3.184-1.253 6.368c-.857 4.354-1.729 8.705-2.602 13.056h-1l-1-8H56v-28l27-1v-27H56l-.062-13.437-.028-4.244-.008-3.315-.016-3.412C56 419 56 419 57 418c1.927-.087 3.857-.107 5.785-.098l3.192.008 4.085.027L83 418v-28h28l1-27c6.64-.664 12.458-1.106 19-1"/><path fill="#FDFDFD" d="M1226 0h28v84l-28-1V56l-27 1-1 26c-9 1.125-9 1.125-12.937.879l-2.52-.147-2.543-.17-2.637-.158q-3.181-.194-6.363-.404c-1.298-2.596-1.13-4.507-1.133-7.41l-.004-3.248.012-3.404-.012-3.417.004-3.244.004-2.992C1170 57 1170 57 1171 56a120 120 0 0 1 5.785-.316l3.545-.127 3.733-.12 3.744-.13q4.596-.16 9.193-.307l.076-2.37c.115-3.523.238-7.045.361-10.568l.12-3.732.127-3.545.11-3.285C1198 29 1198 29 1199 28c2-.088 4.002-.107 6.004-.098l3.315.008 4.244.027L1226 28z"/><path fill="#FCFCFD" d="M919 28h27c1.33 2.662 1.113 4.687 1.098 7.664l-.01 3.398-.025 3.563-.014 3.586Q947.03 50.606 947 55l2.1-.018c5.887-.028 11.717.1 17.587.518l2.163.145q2.575.173 5.15.355c1.33 8.978 1.088 17.948 1 27-3.098 1.033-5.261 1.13-8.508 1.133l-3.238.004-3.379-.012-3.402.012-3.23-.004-2.974-.004C948 84 948 84 947 83c-.158-1.998-.251-4-.316-6.004l-.116-3.315-.13-4.243L946 56h-27v27c-3.834 1.917-8.6 1.007-12.812.938-4.742.07-9.47.59-14.188 1.062l-1 26c-5.787 1.929-10.285 1.588-15.719-.969a267 267 0 0 1-4.781-2.531c-.822-.43-1.645-.859-2.492-1.3A574 574 0 0 1 862 103l1-19h-27V56h27l1 27h26c.29-8.511.29-8.511.568-17.023l.116-3.192.11-3.285C891 57 891 57 892 56a120 120 0 0 1 5.785-.316l3.192-.116 4.086-.13L918 55z"/><path fill="#F2F1F0" d="M84 1059h28l.063 8.375.027 2.572c.02 5.822-.503 11.184-1.09 17.053H84v28h27c.746 3.728 1.128 6.555 1.133 10.266l.004 2.945-.012 3.039.012 3.086-.008 5.61C112 1142 112 1142 111 1143c-2 .088-4.002.107-6.004.098l-3.682-.01-3.876-.025-3.89-.014q-4.773-.018-9.548-.049l.016 2.37q.029 5.284.046 10.568l.026 3.732.01 3.545.016 3.285C84 1169 84 1169 83 1170c-2 .088-4.002.107-6.004.098l-3.315-.008-4.243-.027L56 1170v-27l27-1v-27H56v-28h27v-13c.24-5.011.626-9.996 1-15"/><path fill="#F8F7F7" d="M1226 502h28v83h-28v-27c-8.84.04-8.84.04-17.681.09l-3.315.008-3.412.016C1199 558 1199 558 1198 557c-.1-1.915-.13-3.833-.133-5.75l-.004-3.531.012-3.719-.012-3.719.004-3.531.004-3.266C1198 531 1198 531 1199 530c2-.088 4.002-.107 6.004-.098l3.315.008 4.244.028L1226 530z"/><path fill="#FDFDFD" d="M307 28h28l.063 13.438.027 4.243.008 3.315.016 3.412C335 55 335 55 334 56c-2 .088-4.002.107-6.004.098l-3.682-.01-3.877-.026-3.888-.013Q311.774 56.03 307 56l.016 2.463q.029 5.487.046 10.974l.026 3.877.01 3.682.016 3.412C307 83 307 83 306 84c-1.503.075-3.01.083-4.516.063l-2.793-.024-5.836-.078-2.808-.023-2.568-.036c-2.923.05-2.923.05-7.479 1.098l-1 26-27 1-1 27h-28v-28h28V84l27-1 1-27 27-1z"/><path fill="#F2F0F0" d="M84 335h27l.563 10.688c.06 1.103.122 2.206.185 3.342l.13 2.67.144 2.713C112 357 112 357 111 362l-26 1c-.29 8.511-.29 8.511-.568 17.023l-.116 3.192-.11 3.285C84 389 84 389 83 390a120 120 0 0 1-5.785.316l-3.192.116-4.085.13L57 391l-1 27-27 1-1 27H0v-28h28c-.04-8.84-.04-8.84-.09-17.681l-.008-3.315-.016-3.412C28 391 28 391 29 390c1.927-.087 3.857-.107 5.785-.098l3.192.008 4.086.027L55 390l1-26c7.875-2.25 7.875-2.25 12.059-2.195l2.666.02 2.713.05 2.794.027q3.385.036 6.768.098l-.035-3.621-.028-4.817-.025-2.373-.01-2.373-.016-2.142c.166-3.905.682-7.789 1.114-11.674"/><path fill="#FDFDFD" d="m335 1085 5 1v3l-4-1-.076 2.37c-.115 3.523-.238 7.045-.361 10.568l-.12 3.732-.127 3.545-.11 3.285C335 1114 335 1114 334 1115c-2 .088-4.002.107-6.004.098l-3.315-.008-4.243-.027L307 1115v27c-2.662 1.33-4.687 1.113-7.664 1.098l-3.061-.008-3.9-.027L280 1143l-1 27h-28v-27c9-1.125 9-1.125 12.938-1.098l2.277.008 2.785.027 9 .063 1-27 27-1 1-27h28zM87.5 250.886l3.285.016 3.545.01 3.733.025 3.744.014q4.597.018 9.193.049c1.333 19.005 1.333 19.005 0 27-3.208.954-6.082 1.116-9.422 1.098l-3.105-.01-3.223-.026-3.27-.013Q87.99 279.03 84 279l.016 2.156q.029 4.828.047 9.656l.025 3.393.01 3.252.016 3C84 303 84 303 83 306c-2.662 1.33-4.687 1.113-7.664 1.098l-3.398-.01-3.563-.026-3.586-.013Q60.394 307.03 56 307l.016 2.463q.029 5.487.047 10.974l.025 3.877.01 3.682.016 3.412C56 334 56 334 55 335c-1.66.1-3.325.13-4.988.133l-3.08.004-3.244-.012-3.21.012-3.091-.004-2.837-.004C32 335 32 335 28 334v-27l27-1 1-27 27-1c.29-8.511.29-8.511.568-17.023l.116-3.192.11-3.285c.276-3.357.336-3.46 3.706-3.614M56 56h27c.655 3.932 1.127 7.057 1.133 10.926l.004 2.662-.012 2.725.012 2.783-.008 5.05C84 82 84 82 83 83a120 120 0 0 1-5.785.316l-3.192.116-4.085.13L57 84l-1 27-27 1-1 27H0v-28h28V84l27-1zM167 1143v27h-27l-1 28c-12.937.438-12.937.438-17.023.568l-3.192.116-3.285.11c-2.44-.07-2.44-.07-3.5 1.206a115 115 0 0 0-.098 5.785l.008 3.192.028 4.085L112 1226H84l-.062-13.437-.028-4.244-.008-3.315-.016-3.412C84 1199 84 1199 85 1198a120 120 0 0 1 5.785-.316l3.545-.127 3.733-.12 3.744-.13q4.596-.16 9.193-.307l.076-2.37q.174-5.284.362-10.568l.119-3.732.127-3.545.11-3.285c.206-2.5.206-2.5 1.206-3.5a120 120 0 0 1 5.785-.316l3.545-.127 3.733-.12 3.744-.13q4.596-.16 9.193-.307l-.035-3.656-.028-4.844-.025-2.398c-.02-5.13.349-10.025 1.088-15.102 9.18-1.311 17.773-.66 27 0M1198 585c9.503-.089 18.46.266 28 1v27h28v28h-28l-1-27-27-1zm-19 13h1l1 15h17v28h-20c-.05-9.809.13-19.572.5-29.375l.145-4q.174-4.812.355-9.625"/><path fill="#F1F0F0" d="M530 0h28l1 29-29-1c.04 8.84.04 8.84.09 17.681l.008 3.315.016 3.412C530 55 530 55 529 56c-2 .088-4.002.107-6.004.098l-3.682-.01-3.876-.026-3.89-.013Q506.776 56.03 502 56v7l4 1-2.824.516c-7.71 1.465-15.034 3.23-22.469 5.812C478 71 478 71 474 70V56l27-1 1-27 27-1z"/><path fill="#F1F0F1" d="M223 195h28c0 6 0 6-1.908 8.574l-2.658 2.543-1.43 1.397a425 425 0 0 1-4.566 4.361q-2.977 2.865-5.942 5.742l-1.46 1.406c-3.361 3.258-6.49 6.643-9.522 10.207a131 131 0 0 1-4.436 4.903c-6.658 7.036-12.744 14.346-18.645 22.023-3.04 3.913-6.168 7.757-9.287 11.607l-1.42 1.764-1.392 1.715c-1.377 1.756-1.377 1.756-2.56 3.752-1.208 1.943-1.208 1.943-3.774 5.006-3.262.535-3.262.535-6.687.063l-3.45-.403C169 279 169 279 167 277c-.243-2.506-.243-2.506-.23-5.629l.005-3.385.037-3.548.002-3.561c.046-8.737.046-8.737 1.186-9.877 1.998-.158 4-.251 6.004-.316l3.315-.116 4.244-.13L195 250v-27h28z"/><path fill="#F2F0F0" d="M1114 1031h28v28l-27 1-1 27-28 1v-29h28z"/><path fill="#F2F1F1" d="m170.592 1197.886 3.412.016 3.315.008 4.243.027L195 1198v28l-27 1-1 27h-28l-.063-13.438-.027-4.243-.008-3.315-.016-3.412C139 1227 139 1227 140 1226c2-.088 4.002-.107 6.004-.098l3.682.01 3.876.025 3.89.014q4.773.018 9.548.049l-.016-2.463q-.029-5.487-.047-10.975l-.025-3.876-.01-3.682-.016-3.412c.153-3.49.216-3.553 3.706-3.706"/><path fill="#FDFDFD" d="M1226 0h28v56h-27c-1-1-1-1-1.12-3.208l.006-2.954V46.5l.016-3.63.005-3.695c.005-3.913.018-7.826.03-11.739q.008-3.968.014-7.935c.01-6.5.03-13.001.049-19.502"/><path fill="#F2F0F0" d="m170.592 1030.886 3.412.016 3.315.008 4.243.027L195 1031v28l-27 1-1 27-13.438.062-4.243.028-3.315.008-3.412.016C140 1087 140 1087 139 1086c-.1-1.83-.13-3.664-.133-5.496l-.004-3.381.012-3.56-.012-3.55.008-6.507C139 1061 139 1061 140 1059h27c-.04-8.84-.04-8.84-.09-17.681l-.008-3.315-.016-3.412c.153-3.49.216-3.553 3.706-3.706"/><path fill="#FDFDFD" d="m1146.506 1197.757 3.123.013 3.385.005 3.548.037 3.561.002c8.737.046 8.737.046 9.877 1.186.088 2 .107 4.002.098 6.004l-.008 3.315-.028 4.243L1170 1226l-27 1-1 27h-28l-.063-13.438-.027-4.243-.008-3.315-.016-3.412C1114 1227 1114 1227 1115 1226c2-.088 4.002-.107 6.004-.098l3.682.01 3.876.025 3.89.014q4.773.018 9.548.049c-.01-.777-.02-1.554-.032-2.355-.041-3.507-.067-7.013-.093-10.52l-.05-3.707-.02-3.535-.032-3.27c.31-3.566 1.153-4.509 4.733-4.856"/><path fill="#F2F1F0" d="m312.008 1169.867 2.492-.004 2.625.012 2.555-.012c4.865.008 9.549.137 14.32 1.137 1.298 2.596 1.13 4.507 1.133 7.41l.004 3.248-.012 3.405.012 3.416-.004 3.244-.004 2.992C335 1197 335 1197 334 1198a120 120 0 0 1-5.785.316l-3.192.116-4.086.13L308 1199l-1 27h-28l-.062-13.437-.028-4.244-.008-3.315-.016-3.412C279 1199 279 1199 280 1198c2-.088 4.002-.107 6.004-.098l3.682.01 3.877.025 3.888.014q4.775.018 9.549.049l-.016-2.463q-.029-5.487-.046-10.975l-.026-3.876-.01-3.682-.016-3.412c.18-4.11 1.41-3.72 5.122-3.725"/><path fill="#F2F1F1" d="M195 973c1.12 3.36 1.028 5.67.879 9.2l-.13 3.299-.186 4.188L195 1003l-27 1-1 27-13.437.063-4.244.027-3.315.008-3.412.016C140 1031 140 1031 139 1030c-.1-1.83-.13-3.664-.133-5.496l-.004-3.381.012-3.56-.012-3.55.004-3.384.004-3.123C139 1005 139 1005 140 1003h27v-28h28z"/><path fill="#FDFDFD" d="M1058 138c1.357 2.714 1.112 4.848 1.098 7.883l-.008 3.184-.027 4.058L1059 166l27 1v28h-28v-28h-27c-.827-9.834-.773-17.95 0-28zM251 28h28l.063 13.438.027 4.243.008 3.315.016 3.412C279 55 279 55 278 56c-2 .088-4.002.107-6.004.098l-3.315-.008-4.243-.028L251 56v27c-2.747 1.374-4.817 1.013-7.883.879l-3.184-.13-4.058-.186L223 83V56c4.041-.674 7.203-1.122 11.18-1.098l2.538.008 3.157.028L250 55zM56 0h28v28h27c.697 4.184 1.11 7.083.914 11.145l-.133 2.798-.156 2.87-.133 2.927c-.36 7.128-.36 7.128-1.492 8.26-1.757.1-3.518.13-5.277.133l-3.244.004-3.416-.012-3.405.012-3.248-.004-2.996-.004C86 56 86 56 84 55l-1-26-27-1z"/><path fill="#F2F0F0" d="m1201.592 1114.886 3.412.016 3.315.008 4.243.027L1226 1115v28l-27 1-1 26h-27c-.842-3.37-1.129-5.762-1.133-9.168l-.004-2.955.012-3.065-.012-3.1.008-5.642c.129-2.07.129-2.07 1.129-3.07 1.998-.158 4-.251 6.004-.316l3.682-.127 3.876-.12 3.89-.13q4.773-.16 9.548-.307l-.016-2.37q-.029-5.284-.047-10.568l-.025-3.732-.01-3.545-.016-3.285c.156-3.425.273-3.463 3.706-3.614"/><path fill="#F2F1F0" d="M1226 1143h28v27l-27 1-1 27h-27c-.646-6.463-1.16-12.613-1.125-19.062l-.012-2.295c.01-5.516.01-5.516 1.137-6.643 2-.088 4.002-.107 6.004-.098l3.315.008 4.244.027L1226 1170zM142.592 278.886l3.412.016 3.682.01 3.876.025 3.89.014q4.773.018 9.548.049c.316 3.497.57 6.997.812 10.5l.272 2.977c.442 6.975-.636 11.084-5.084 16.523l-1-2h-22l-1 27-12.375.562-3.9.186-3.06.13-3.143.144C114 335 114 335 112 334v-27l27-1c-.04-8.512-.04-8.512-.09-17.023l-.008-3.192-.016-3.285c.156-3.425.273-3.463 3.706-3.614"/><path fill="#FDFDFD" d="M140 28h27v28l-13.437.063-4.244.027-3.315.008-3.412.016C140 56 140 56 139 55c-.1-1.66-.13-3.325-.133-4.988l-.004-3.08.012-3.245-.012-3.208.004-3.092.004-2.837C139 32 139 32 140 28m-14.184 26.902 2.147.008 2.6.028L139 55v28c-6.707.67-12.535 1.07-19.125.563L112 83V56c10.125-1.125 10.125-1.125 13.816-1.098"/><path fill="#F2F0F0" d="M1143 1115h27l.063 13.438.027 4.243.008 3.315.016 3.412C1170 1142 1170 1142 1169 1143a120 120 0 0 1-5.785.316l-3.192.116-4.085.13L1143 1144l-1 26q-6.72.04-13.437.063l-3.877.025-3.682.01-3.412.016C1115 1170 1115 1170 1114 1169c-.1-1.672-.13-3.348-.133-5.023l-.004-3.094.012-3.258-.012-3.234.004-3.102.004-2.853C1114 1146 1114 1146 1115 1143l27-1v-11c.139-2.904.294-5.79.5-8.687z"/><path fill="#FDFDFD" d="M84 84h27l.563 9c.06.92.122 1.838.185 2.785l.13 2.278.144 2.285c-.03 3.567-.58 7.112-1.022 10.652H83zm-24.5 26.886 3.285.016 3.192.008 4.085.028L83 111v28H56l-.062-13.437-.028-4.244-.008-3.315-.016-3.412c.15-3.433.189-3.55 3.614-3.706"/><path fill="#F0F0F1" d="M100 773c1.835 2.752 2.552 4.487 3.402 7.605l.76 2.733.775 2.85c2.113 7.747 2.113 7.747 4.817 15.3C111 805 111 805 110 808l-25 1-1 27H56v-28h28v-27c4.062-.812 7.234-1.107 11.313-1.062l3.238.027L101 780z"/><path fill="#F2F1F1" d="M336 1087c5.439.35 8.852 1.78 13.375 4.75 5.107 3.292 10.272 6.373 15.625 9.25l-2 2c-.205 2.637-.205 2.637-.062 5.563.054 1.811.082 3.624.062 5.437-1 1-1 1-3.592 1.114l-3.412-.016-3.682-.01-3.877-.025-3.888-.014q-4.775-.018-9.549-.049l.016 2.463q.029 5.487.046 10.975l.026 3.876.01 3.682.016 3.412C335 1142 335 1142 334 1143c-2 .088-4.002.107-6.004.098l-3.682-.01-3.877-.025-3.888-.014q-4.775-.02-9.549-.049v18h-1c-.168-15.36.377-30.65 1-46l27-1c.29-8.511.29-8.511.568-17.023l.116-3.192.11-3.285c.206-2.5.206-2.5 1.206-3.5"/><path fill="#F1F0F1" d="m1198 613 13.438-.062 4.243-.028 3.315-.008 3.412-.016C1225 613 1225 613 1226 614c.088 2 .107 4.002.098 6.004l-.008 3.315-.027 4.244L1226 641l-27 1-1 27h-23c0-6.389.09-12.248.938-18.5l.263-2.125c.662-5.102.662-5.102 1.799-7.375h20z"/><path fill="#FBFCFD" d="M919 84h27l.563 10.688c.06 1.103.122 2.206.185 3.342l.13 2.67.144 2.713C947 106 947 106 946 111l-26 1-1 20c-6.748-1.125-6.748-1.125-9.621-2.926l-1.897-1.166-1.92-1.22q-1.903-1.184-3.808-2.364l-1.867-1.166c-2.922-1.793-5.901-3.474-8.887-5.158-.043-2-.04-4 0-6 1.775-1.775 4.378-1.235 6.785-1.316l3.192-.116 4.086-.13L918 110z"/><path fill="#F2F1F1" d="M558 1165c3.167.14 6.333.289 9.5.438l2.688.119 2.656.127 2.412.11c2.89.217 5.746.59 8.619.96 16.813 1.953 33.96 1.372 50.848 1.315q5.14-.014 10.28-.02 10-.017 19.997-.049v1l-2.371.148-3.067.227c-1.009.07-2.018.14-3.058.21-.826.138-1.653.274-2.504.415l-1 2h-12v-1h-28v27h-27c-1.357-2.714-1.112-4.848-1.098-7.883l.008-3.184.028-4.058L585 1170h-27z"/><path fill="#FCFCFD" d="m953.277 110.867 3.244-.004 3.417.012 3.404-.012 3.248.004 2.996.004C972 111 972 111 974 112v27h-27v10l-1 2c-4.172-1.486-7.629-3.553-11.312-6l-3.239-2.125L929 141v-2h17l.184-5.871.254-7.566.119-3.877.127-3.682.11-3.412c.364-4.584 2.36-3.72 6.483-3.725"/><path fill="#F6F9FD" d="m890 1100 2 1-1 13c-2.672.2-2.672.2-5.398.402l-6.977.535-3.562.264-3.399.264-3.142.238c-2.514.151-2.514.151-4.522 1.297l-1 25c-3.932.655-7.057 1.127-10.926 1.133l-2.662.004-2.725-.012-2.783.012-5.05-.008C837 1143 837 1143 836 1142a105 105 0 0 1-.812-6.312l-.395-3.489c.207-3.199.207-3.199 1.629-5.355 3.646-2.608 7.528-4.278 11.64-6.032a3657 3657 0 0 0 5.41-2.378l2.782-1.22c4.275-1.89 8.517-3.849 12.746-5.839l2.377-1.117c5.71-2.727 11.116-5.761 16.47-9.14.71-.37 1.421-.738 2.153-1.118"/><path fill="#FDFDFD" d="M0 390h29l-1 28H0zM1226 1226h28v28h-28z"/><path fill="#F2F1F1" d="M1198 1226h28v28h-28z"/><path fill="#FDFDFD" d="M891 1226h28v28h-28z"/><path fill="#F2F0F0" d="M808 1226h28v28h-28z"/><path fill="#FDFDFD" d="M613 1226h28v28h-28zM446 1226h28v28h-28z"/><path fill="#F2F1F1" d="M251 1226h28v28h-28z"/><path fill="#F2F0F0" d="M84 1226h28v28H84z"/><path fill="#F2F1F1" d="M28 1226h28v28H28z"/><path fill="#FDFDFD" d="M0 1226h28v28H0zM336 1199c.151 2.598.151 2.598.012 5.848l-.143 3.521-.182 3.694-.146 3.705c-.399 9.09-.399 9.09-1.541 10.232-2 .088-4.002.107-6.004.098l-3.682-.01-3.877-.025-3.888-.014q-4.775-.018-9.549-.049-.042-6.72-.062-13.437l-.026-3.877-.01-3.682-.016-3.412C307 1199 307 1199 308 1198c4.3-.413 8.622-.517 12.938-.687l3.693-.182 3.521-.143 3.25-.14C334 1197 334 1197 336 1199"/><path fill="#F2F0F0" d="M251 1170h29l-.437 13.438-.131 4.243-.116 3.315-.11 3.412C279 1197 279 1197 278 1198c-2 .088-4.002.107-6.004.098l-3.315-.008-4.243-.027L251 1198z"/><path fill="#F2F1F1" d="M251 1059h28v28h-28z"/><path fill="#F2F1F0" d="M28 1059h28v28H28z"/><path fill="#FDFDFD" d="M0 1059h28v28H0zM198.684 1030.886l3.539.016 3.437.008 4.403.027L224 1031l-1 28h-28l-.062-13.438-.028-4.243-.008-3.315-.016-3.412c.156-3.545.243-3.555 3.798-3.706"/><path fill="#F2F1F0" d="M0 1031h28v28H0z"/><path fill="#F2F1F1" d="m1201.684 1002.886 3.539.016 3.437.008 4.403.027L1227 1003l-1 28h-28l-.062-13.438-.028-4.243-.008-3.315-.016-3.412c.156-3.545.243-3.555 3.798-3.706"/><path fill="#F3F1F1" d="M0 975h28v28H0z"/><path fill="#F2F1F0" d="M1226 864h28v28h-28z"/><path fill="#F2F1F1" d="M28 836h28v28H28z"/><path fill="#FDFDFD" d="M0 836h28v28H0z"/><path fill="#F2F1F1" d="M0 808h28v28H0z"/><path fill="#FDFDFD" d="M0 669h28v28H0z"/><path fill="#F2F1F0" d="M1226 641h28v28h-28z"/><path fill="#F2F0F0" d="m1201.592 445.886 3.412.016 3.315.008 4.243.027L1226 446v28l-28 1-.063-13.938-.027-4.402-.008-3.437-.016-3.54c.15-3.554.16-3.641 3.706-3.797"/><path fill="#FDFDFD" d="M1226 223h28v28h-28z"/><path fill="#F2F0F0" d="M28 223h28v28H28z"/><path fill="#FDFDFD" d="M0 223h28v28H0zM195 195h28v28h-28zM223 167h28v28h-28z"/><path fill="#F2F1F0" d="M28 167h28v28H28z"/><path fill="#FDFDFD" d="M0 167h28v28H0z"/><path fill="#F2F0F0" d="M1198 111h28v28h-28zM195 111h28v28h-28z"/><path fill="#FDFDFD" d="M1114 0h28v28h-28z"/><path fill="#F2F0F0" d="M808 0h28v28h-28zM752 0h28v28h-28z"/><path fill="#FDFDFD" d="M613 0h28v28h-28z"/><path fill="#F2F1F0" d="M585 0h28v28h-28z"/><path fill="#FDFDFD" d="M279 0h28v28h-28z"/><path fill="#F1F0F0" d="M251 0h28v28h-28z"/><path fill="#FDFDFD" d="M0 0h28v28H0zM1173.592 1225.886l3.412.016 3.315.008 4.243.027L1198 1226v28h-28l-.063-13.438-.027-4.243-.008-3.315-.016-3.412c.153-3.49.216-3.553 3.706-3.706"/><path fill="#F2F1F1" d="m1145.592 1225.886 3.412.016 3.315.008 4.243.027L1170 1226v28h-28l-.063-13.438-.027-4.243-.008-3.315-.016-3.412c.153-3.49.216-3.553 3.706-3.706"/><path fill="#FDFDFD" d="m1061.592 1225.886 3.412.016 3.315.008 4.243.027L1086 1226v28h-28l-.063-13.438-.027-4.243-.008-3.315-.016-3.412c.153-3.49.216-3.553 3.706-3.706"/><path fill="#F2F1F0" d="m866.592 1225.886 3.412.016 3.315.008 4.243.027L891 1226v28h-28l-.063-13.438-.027-4.243-.008-3.315-.016-3.412c.153-3.49.216-3.553 3.706-3.706"/><path fill="#FDFDFD" d="m669 1226 13.438-.062 4.243-.028 3.315-.008 3.412-.016C696 1226 696 1226 697 1227c.088 2 .107 4.002.098 6.004l-.008 3.315-.028 4.244L697 1254h-28zM502 1226l13.438-.062 4.243-.028 3.315-.008 3.412-.016C529 1226 529 1226 530 1227c.088 2 .107 4.002.098 6.004l-.008 3.315-.028 4.244L530 1254h-28z"/><path fill="#F2F1F0" d="m198.592 1225.886 3.412.016 3.315.008 4.243.027L223 1226v28h-28l-.063-13.438-.027-4.243-.008-3.315-.016-3.412c.153-3.49.216-3.553 3.706-3.706"/><path fill="#FDFDFD" d="m56 1226 13.438-.062 4.243-.028 3.315-.008 3.412-.016C83 1226 83 1226 84 1227c.088 2 .107 4.002.098 6.004l-.008 3.315-.028 4.244L84 1254H56z"/><path fill="#F2F1F1" d="m1229.592 1197.886 3.412.016 3.315.008 4.243.027L1254 1198v28h-28l-.063-13.438-.027-4.243-.008-3.315-.016-3.412c.153-3.49.216-3.553 3.706-3.706M226.592 1197.886l3.412.016 3.315.008 4.243.027L251 1198v28h-28l-.063-13.438-.027-4.243-.008-3.315-.016-3.412c.153-3.49.216-3.553 3.706-3.706"/><path fill="#FDFDFD" d="m1229.592 1169.886 3.412.016 3.315.008 4.243.027L1254 1170v28h-28l-.063-13.438-.027-4.243-.008-3.315-.016-3.412c.153-3.49.216-3.553 3.706-3.706"/><path fill="#F2F1F0" d="M1226 1087h28v28l-13.437.063-4.244.027-3.315.008-3.412.016C1227 1115 1227 1115 1226 1114c-.088-2-.107-4.002-.098-6.004l.008-3.315.027-4.244z"/><path fill="#FDFDFD" d="M251 1087h28c.03 6.652.03 6.652.063 13.438l.027 4.243.008 3.315.016 3.412C279 1114 279 1114 278 1115c-2 .088-4.002.107-6.004.098l-3.315-.008-4.243-.027L251 1115z"/><path fill="#F2F1F0" d="m1229.592 1030.886 3.412.016 3.315.008 4.243.027L1254 1031v28h-28l-.063-13.438-.027-4.243-.008-3.315-.016-3.412c.153-3.49.216-3.553 3.706-3.706"/><path fill="#F2F0F0" d="M1198 836h28v28l-13.437.063-4.244.027-3.315.008-3.412.016C1199 864 1199 864 1198 863c-.088-2-.107-4.002-.098-6.004l.008-3.315.027-4.244z"/><path fill="#FDFDFD" d="m1229.592 779.886 3.412.016 3.315.008 4.243.027L1254 780v28h-28l-.063-13.438-.027-4.243-.008-3.315-.016-3.412c.153-3.49.216-3.553 3.706-3.706"/><path fill="#F2F1F0" d="m1229.592 417.886 3.412.016 3.315.008 4.243.027L1254 418v28h-28l-.063-13.438-.027-4.243-.008-3.315-.016-3.412c.153-3.49.216-3.553 3.706-3.706"/><path fill="#F2F0F0" d="m1201.592 166.886 3.412.016 3.315.008 4.243.027L1226 167v28h-28l-.063-13.438-.027-4.243-.008-3.315-.016-3.412c.153-3.49.216-3.553 3.706-3.706"/><path fill="#F1F0F0" d="m198.592 166.886 3.412.016 3.315.008 4.243.027L223 167v28h-28l-.063-13.438-.027-4.243-.008-3.315-.016-3.412c.153-3.49.216-3.553 3.706-3.706"/><path fill="#F2F1F0" d="m1229.592 138.886 3.412.016 3.315.008 4.243.027L1254 139v28h-28l-.063-13.438-.027-4.243-.008-3.315-.016-3.412c.153-3.49.216-3.553 3.706-3.706"/><path fill="#F2F0F0" d="M1226 28h28v28l-13.437.063-4.244.027-3.315.008-3.412.016C1227 56 1227 56 1226 55c-.088-2-.107-4.002-.098-6.004l.008-3.315.027-4.243z"/><path fill="#FDFDFD" d="M808 28h28c.03 6.652.03 6.652.063 13.438l.027 4.243.008 3.315.016 3.412C836 55 836 55 835 56c-2 .088-4.002.107-6.004.098l-3.315-.008-4.244-.028L808 56zM891 0h28c.03 6.652.03 6.652.063 13.438l.027 4.243.008 3.315.016 3.412C919 27 919 27 918 28c-2 .088-4.002.107-6.004.098l-3.315-.008-4.244-.027L891 28zM502 0h28c.03 6.652.03 6.652.063 13.438l.027 4.243.008 3.315.016 3.412C530 27 530 27 529 28c-2 .088-4.002.107-6.004.098l-3.315-.008-4.244-.027L502 28z"/><path fill="#F2F0F0" d="M418 0h28v28l-13.437.063-4.244.027-3.315.008-3.412.016C419 28 419 28 418 27c-.088-2-.107-4.002-.098-6.004l.008-3.315.027-4.244z"/><path fill="#FDFDFD" d="M335 0h28c.03 6.652.03 6.652.063 13.438l.027 4.243.008 3.315.016 3.412C363 27 363 27 362 28c-2 .088-4.002.107-6.004.098l-3.315-.008-4.243-.027L335 28zM167 0h28v28l-13.437.063-4.244.027-3.315.008-3.412.016C168 28 168 28 167 27c-.088-2-.107-4.002-.098-6.004l.008-3.315.028-4.244z"/><path fill="#F2F1F1" d="M446 1198h27c1.357 2.714 1.112 4.848 1.098 7.883l-.008 3.184-.027 4.058L474 1226h-28z"/><path fill="#F2F0F0" d="m1092.75 1169.867 3.531-.004 3.719.012 3.719-.012 3.531.004 3.266.004C1113 1170 1113 1170 1114 1171c.088 2 .107 4.002.098 6.004l-.008 3.315-.027 4.244L1114 1198h-28l-.062-13.437-.028-4.244-.008-3.315-.016-3.412c.21-4.77 2.661-3.72 6.864-3.725"/><path fill="#F2F1F0" d="m421.684 1169.886 3.539.016 3.437.008 4.403.027L447 1170l-1 28h-27c-1.324-2.648-1.13-4.667-1.133-7.629l-.004-3.385.012-3.549-.012-3.56.004-3.38.004-3.12c.184-3.389.395-3.346 3.813-3.49"/><path fill="#FDFDFD" d="M1226 892h28v28c-6.373.03-6.373.03-12.875.063l-4.058.027-3.184.008-3.27.016C1228 920 1228 920 1226 919zM112 808v28H84l-.062-13.437-.028-4.244-.008-3.315-.016-3.412C84 809 84 809 85 808c4.134-.385 8.29-.47 12.438-.625l3.548-.156 3.385-.133 3.123-.124C110 807 110 807 112 808M1201.592 529.886l3.412.016 3.315.008 4.243.027L1226 530v28l-13.438.062-4.243.028-3.315.008-3.412.016C1199 558 1199 558 1198 557c-.1-1.915-.13-3.833-.133-5.75l-.004-3.531.012-3.719-.012-3.719.004-3.531.004-3.266c.177-3.412.297-3.448 3.721-3.598M28 530h28v28c-6.373.03-6.373.03-12.875.063l-4.058.027-3.184.008-3.27.016C30 558 30 558 28 557zM1201.592 473.886l3.412.016 3.315.008 4.243.027L1226 474v28l-13.438.062-4.243.028-3.315.008-3.412.016C1199 502 1199 502 1198 501c-.1-1.915-.13-3.833-.133-5.75l-.004-3.531.012-3.719-.012-3.719.008-6.797c.177-3.412.297-3.448 3.721-3.598"/><path fill="#F2F1F0" d="m1117.592 306.886 3.412.016 3.315.008 4.243.027L1142 307v27c-7.889 1.127-7.889 1.127-12.023 1.133l-2.653.004-2.699-.012-2.77.012-2.628-.004-2.389-.004C1115 335 1115 335 1114 334c-.1-1.915-.13-3.833-.133-5.75l-.004-3.531.012-3.719-.012-3.719.008-6.797c.177-3.412.297-3.448 3.721-3.598M1114 334v7l-2 1c-3-4.75-3-4.75-3-7 3.875-1 3.875-1 5-1"/><path fill="#FDFDFD" d="m1173.592 222.886 3.412.016 3.315.008 4.243.027L1198 223v28l-13.438.062-4.243.028-3.315.008-3.412.016C1171 251 1171 251 1170 250c-.1-1.915-.13-3.833-.133-5.75l-.004-3.531.012-3.719-.012-3.719.008-6.797c.177-3.412.297-3.448 3.721-3.598"/><path fill="#F1F0F0" d="M863 0h28v28h-27c-1.357-2.714-1.112-4.848-1.098-7.883l.008-3.184.028-4.058z"/><path fill="#FDFDFD" d="M669 0h28l.063 12.875.027 4.058.008 3.184.016 3.27C697 26 697 26 696 28h-27z"/><path fill="#F2F0F0" d="M196 1170h27v28l-13.437.063-4.244.027-3.315.008-3.412.016C196 1198 196 1198 195 1197c-.1-1.83-.13-3.664-.133-5.496l-.004-3.381.012-3.56-.012-3.55.004-3.384.004-3.123C195 1172 195 1172 196 1170"/><path fill="#FDFDFD" d="m1086 919 28 1v27c-2.526 1.263-4.296 1.13-7.121 1.133l-3.084.004-3.233-.012-3.22.012-3.088-.004-2.834-.004C1089 948 1089 948 1086 947z"/><path fill="#F1F0F0" d="m1117.592 138.886 3.412.016 3.315.008 4.243.027L1142 139v28h-27c-1.324-2.648-1.13-4.667-1.133-7.629l-.004-3.385.012-3.549-.012-3.56.004-3.38.004-3.12c.181-3.336.366-3.344 3.721-3.49"/><path fill="#FDFDFD" d="M223 1115h28v28c-5.816.03-5.816.03-11.75.063l-3.687.027-2.922.008-2.984.016C227 1143 227 1143 223 1142zM1233.121 333.867l3.084-.004 3.233.012 3.22-.012 3.088.004 2.834.004C1251 334 1251 334 1254 335v28c-6.791 0-13.435-.052-20.187-.5L1226 362v-27c2.526-1.263 4.296-1.13 7.121-1.133"/><path fill="#F1F0F0" d="M168 139h27v28h-27c-1.294-2.587-1.13-4.481-1.133-7.375l-.004-3.234.012-3.391-.012-3.39.004-3.235.004-2.977C167 141 167 141 168 139"/><path fill="#F2F0F0" d="M223 28h28c.03 6.652.03 6.652.063 13.438l.027 4.243.008 3.315.016 3.412C251 55 251 55 250 56c-2 .088-4.002.107-6.004.098l-3.315-.008-4.244-.028L223 56zM1030 0h28v28h-27c-.88-3.523-1.117-6.062-1.098-9.64l.008-2.923.027-3.687z"/><path fill="#FDFDFD" d="M391 1226h27v28h-28l-.062-11.187-.028-3.501-.008-2.792-.016-2.841C390 1231 390 1231 391 1226M198.592 1086.886l3.412.016 3.315.008 4.243.027L223 1087v28l-11.75.062-3.687.028-2.922.008-2.984.016c-2.386-.102-4.379-.431-6.657-1.114-.029-4.312-.047-8.625-.063-12.938l-.025-3.732-.01-3.545-.016-3.285c.156-3.425.273-3.463 3.706-3.614M1229.592 278.886l3.412.016 3.315.008 4.243.027L1254 279v28l-11.75.062-3.687.028-2.922.008-2.984.016c-2.386-.102-4.379-.431-6.657-1.114-.029-4.312-.047-8.625-.063-12.938l-.025-3.732-.01-3.545-.016-3.285c.156-3.425.273-3.463 3.706-3.614M1061.592 222.886l3.412.016 3.315.008 4.243.027L1086 223v28h-27c-.858-3.433-1.129-5.907-1.133-9.387l-.004-3.092.012-3.209-.012-3.244.004-3.08.004-2.827c.19-3.181.512-3.134 3.721-3.275"/><path fill="#F2F0F0" d="m950.5 1197.886 3.285.016 3.545.01 3.733.025 3.744.014q4.596.018 9.193.049l.076 1.693q.177 3.873.362 7.744l.119 2.663.127 2.646.11 2.396c.285 3.963.767 7.91 1.206 11.858l-29-1c-1.126-7.884-1.126-7.884-.914-12.023l.133-2.653.156-2.699.133-2.77c.417-7.806.417-7.806 3.992-7.969"/><path fill="#FDFDFD" d="m1229.592 724.886 3.412.016 3.315.008 4.243.027L1254 725v28l-11.188.062-3.5.028-2.792.008-2.841.016c-2.66-.113-5.088-.52-7.679-1.114-.029-4.312-.047-8.625-.063-12.938l-.025-3.732-.01-3.545-.016-3.285c.156-3.425.273-3.463 3.706-3.614M1201.592 250.886l3.412.016 3.682.01 3.876.025 3.89.014q4.773.018 9.548.049.042 6.72.062 13.437l.026 3.877.01 3.682.016 3.412C1226 278 1226 278 1225 279c-1.576.1-3.156.13-4.734.133l-2.93.004-3.086-.012-3.04.012-2.944-.004-2.695-.004c-2.612-.131-5.023-.552-7.571-1.129-.029-4.312-.047-8.625-.063-12.938l-.025-3.732-.01-3.545-.016-3.285c.156-3.425.273-3.463 3.706-3.614"/><path fill="#F1F0F0" d="m1064.75 138.867 3.531-.004 3.719.012 3.719-.012 6.797.008C1085 139 1085 139 1086 140c.088 2 .107 4.002.098 6.004l-.01 3.682-.025 3.876-.014 3.89q-.018 4.773-.049 9.548c-4.48.029-8.958.047-13.437.063l-3.877.025-3.682.01-3.412.016C1059 167 1059 167 1058 166c-.1-1.915-.13-3.833-.133-5.75l-.004-3.531.012-3.719-.012-3.719.004-3.531.004-3.266c.243-4.668 2.785-3.613 6.879-3.617"/><path fill="#FBFCFD" d="m59.592 501.886 3.412.016 3.682.01 3.876.025 3.89.014q4.773.018 9.548.049c1.221 3.663.943 6.84.687 10.625l-.107 2.043c-.334 5.251-1.32 10.228-2.58 15.332q-6.219.042-12.438.062l-3.587.026-3.409.01-3.158.016C57 530 57 530 56 529c-.1-1.915-.13-3.833-.133-5.75l-.004-3.531.012-3.719-.012-3.719.008-6.797c.177-3.412.297-3.448 3.721-3.598"/><path fill="#FDFDFD" d="m0 334 10.625-.062 3.315-.028 2.662-.008 2.697-.016C22 334 22 334 28 335v27l-28 1zM28 251h28v27c-2.89.963-4.742 1.129-7.746 1.133l-2.787.004-2.904-.012-2.893.012-2.791-.004-2.545-.004C32 279 32 279 28 278zM1145.592 1086.886l3.412.016 3.315.008 4.243.027L1170 1087v27c-3.727 1.864-8.211 1.185-12.313 1.187l-2.88.038-2.795.005-2.548.013c-2.78-.274-4.929-1.1-7.464-2.243-.029-4.146-.047-8.292-.063-12.438l-.025-3.587-.01-3.409-.016-3.158c.159-3.36.331-3.374 3.706-3.522M919 1087h27c1.033 3.098 1.13 5.261 1.133 8.508l.004 3.238-.012 3.379.012 3.402-.004 3.23-.004 2.974C947 1114 947 1114 946 1115c-1.745.1-3.494.13-5.242.133l-3.23.004-3.403-.012-3.379.012-3.238-.004-2.98-.004C922 1115 922 1115 919 1114z"/><path fill="#F2F1F0" d="m28 892 13.438-.062 4.243-.028 3.315-.008 3.412-.016C55 892 55 892 56 893c.1 1.915.13 3.833.133 5.75l.004 3.531-.012 3.719.012 3.719-.004 3.531-.004 3.266C56 919 56 919 55 920a62 62 0 0 1-4.227.133l-2.628.004-2.77-.012-2.7.012-2.652-.004-2.408-.004c-3.223-.16-6.42-.673-9.615-1.129z"/><path fill="#FDFDFD" d="M474 28h28c.03 6.126.03 6.126.063 12.375l.027 3.9.008 3.06.016 3.143C502 53 502 53 501 55c-4.856 1.556-10.143 1.147-15.187 1.125l-2.772.012-2.646-.004-2.411-.004C476 56 476 56 474 55zM56 446h27c.604 6.644 1.163 13 1.125 19.625l.012 2.137c-.01 5.111-.01 5.111-1.137 6.238-2 .088-4.002.107-6.004.098l-3.315-.008-4.243-.027L56 474zM947 1226h27l.5 7.813.158 2.385c.366 5.972.342 11.783.342 17.802h-28c-.685-6.853-1.05-12.874-.562-19.625z"/><path fill="#F2F0F0" d="M56 864h27c1.139 13.662 1.139 13.662 1.125 20.188l.008 3.855C84 891 84 891 83 892c-2 .088-4.002.107-6.004.098l-3.315-.008-4.243-.028L56 892z"/><path fill="#FDFDFD" d="m1089.592 250.886 3.412.016 3.315.008 4.243.027L1114 251v27c-8.938.437-8.938.437-11.695.568-5.468.278-10.869.78-16.305 1.432q-.037-5.955-.055-11.908-.008-2.026-.02-4.054-.017-2.908-.023-5.815l-.016-3.54c.15-3.554.16-3.641 3.706-3.797M56 223h27c1.475 18.248 1.475 18.248 1 27-1 1-1 1-3.592 1.114l-3.412-.016-3.315-.008-4.243-.028L56 251zM977.592 27.886l3.412.016 3.682.01 3.876.025 3.89.014q4.773.018 9.548.049c1.47 19.222 1.47 19.222 1 27-1 1-1 1-3.592 1.114l-3.412-.016-3.682-.01-3.877-.026-3.888-.013Q979.775 56.03 975 56c-.196-4.479-.38-8.958-.563-13.438l-.17-3.876-.146-3.682-.143-3.412c.03-3.5.123-3.553 3.614-3.706M56 1059h27c1.023 3.068 1.134 5.162 1.125 8.375l.008 2.836c-.197 5.606-.703 11.196-1.133 16.789H56z"/><path fill="#F2F0F0" d="m922.684 1169.886 3.539.016 3.818.01 4.022.025q2.016.009 4.033.014 4.952.018 9.904.049l-.219 1.869a134 134 0 0 0-.781 17.193c.045 2.652.048 5.285 0 7.938-1 1-1 1-3.592 1.114l-3.412-.016-3.682-.01-3.876-.026-3.89-.013q-4.773-.018-9.548-.049c-.029-4.48-.047-8.958-.062-13.438l-.026-3.876-.01-3.682-.016-3.412c.156-3.545.243-3.555 3.798-3.706"/><path fill="#FDFDFD" d="M335 1226h27l1 28h-28z"/><path fill="#F2F1F0" d="M975 1059h27l1 28h-28z"/><path fill="#F2F0F0" d="M529 1226h28c1.374 2.747 1.013 4.817.879 7.883l-.13 3.184-.187 4.058L557 1254h-27z"/><path fill="#FDFDFD" d="M84 195h27l.563 13.438c.06 1.4.122 2.8.185 4.243l.13 3.315.144 3.412C112 222 112 222 111 223c-1.83.1-3.664.13-5.496.133l-3.381.004-3.56-.012-3.55.012-3.384-.004-3.123-.004C86 223 86 223 84 222z"/><path fill="#F2F0F0" d="M140 1170c9.051-.173 17.974.383 27 1v27h-27c-1.01-3.028-1.129-5.087-1.133-8.254l-.004-3.088.012-3.22-.012-3.233.004-3.084.004-2.83C139 1172 139 1172 140 1170"/><path fill="#FDFDFD" d="M112 892h27l.563 9c.06.92.122 1.838.185 2.785.3 5.223.23 10.063-.748 15.215-2.662 1.33-4.687 1.113-7.664 1.098l-3.399-.01-3.562-.025-3.586-.014q-4.395-.018-8.789-.049c-.198-3.729-.381-7.458-.562-11.187l-.17-3.198-.147-3.095-.143-2.841C111 897 111 897 112 892M56 836h27c.746 3.728 1.128 6.555 1.133 10.266l.004 2.945-.012 3.039.012 3.086-.008 5.61C84 863 84 863 83 864c-2 .088-4.002.107-6.004.098l-3.315-.008-4.243-.028L56 864zM1226 948h28v27c-6.853.685-12.874 1.05-19.625.563L1226 975z"/><path fill="#F2F0F0" d="m1034.506 1169.757 3.123.013 3.385.005 3.548.037 3.561.002c8.737.046 8.737.046 9.877 1.186.088 2 .107 4.002.098 6.004l-.008 3.315-.028 4.243L1058 1198h-27l-.625-12.875-.213-4.058-.139-3.184-.158-3.27c.186-3.59 1.06-4.509 4.641-4.856"/><path fill="#FDFDFD" d="M1003 1115h27l.563 9.563c.06.98.122 1.96.185 2.97.27 4.979.346 9.586-.748 14.467-2.662 1.33-4.687 1.113-7.664 1.098l-3.399-.01-3.562-.025-3.586-.014q-4.395-.018-8.789-.049c-1.083-3.248-1.034-5.359-.879-8.762l.13-3.053.187-3.872zM83 1002c1.051 3.384 1.04 6.332.879 9.86l-.13 3.045-.186 3.845L83 1031H56l-.062-13.437-.028-4.244-.008-3.315-.016-3.412C56 1004 56 1004 57 1003a120 120 0 0 1 5.785-.316l3.545-.127 3.733-.12 3.744-.13q4.596-.16 9.193-.307M947 0h27c1.15 13.796 1.15 13.796.563 20.75L974 28h-27z"/><path fill="#F2F0F0" d="m505.684 1197.886 3.539.016 3.818.01 4.022.025q2.016.009 4.033.014 4.952.018 9.904.049l-1 2c-.154 1.958-.25 3.92-.316 5.883l-.116 3.184-.13 4.058L529 1226h-27l-.062-13.438-.028-4.243-.008-3.315-.016-3.412c.156-3.545.243-3.555 3.798-3.706"/><path fill="#FDFDFD" d="m561.5 1169.886 3.285.016 3.192.008 4.086.027L585 1170v28h-27c-1.126-10.136-1.126-10.136-.914-13.781l.133-2.36.156-2.359.133-2.453c.423-6.998.423-6.998 3.992-7.16M56 1115h27l.563 12.375c.06 1.287.122 2.574.185 3.9l.13 3.06.144 3.143C84 1140 84 1140 83 1142c-4.856 1.556-10.143 1.147-15.187 1.125l-2.772.012-2.646-.004-2.411-.004C58 1143 58 1143 56 1142zM0 558h28v27c-3.63.907-5.972 1.055-9.64.879l-2.923-.13-3.687-.187L0 585z"/><path fill="#F2F0F0" d="m3.592 82.978 3.412.143 3.315.13 4.243.187L28 84v27H0l-.063-13.437-.027-4.244-.008-3.315-.016-3.412c.153-3.49.206-3.584 3.706-3.614"/><path fill="#FDFDFD" d="M836 0h27l.563 13.438c.06 1.4.122 2.8.185 4.243l.13 3.315.144 3.412C864 27 864 27 863 28c-2 .088-4.002.107-6.004.098l-3.315-.008-4.244-.027L836 28zM112 0h27l.563 13.438c.06 1.4.122 2.8.185 4.243l.13 3.315.144 3.412C140 27 140 27 139 28c-2 .088-4.002.107-6.004.098l-3.315-.008-4.244-.027L112 28z"/><path fill="#F2F1F0" d="M0 1143h28v27H0z"/><path fill="#F2F0F0" d="m1058 1142 28 1v27l-13.437.063-4.244.027-3.315.008-3.412.016C1059 1170 1059 1170 1058 1169c-.088-2-.107-4.002-.098-6.004l.008-3.315.027-4.244z"/><path fill="#F2F1F0" d="M1003 1031h27v28h-27zM0 753h28v27H0z"/><path fill="#FDFDFD" d="M1226 558h28v27h-28zM1089.592 83.886l3.412.016 3.315.008 4.243.027L1114 84v27h-28l-.063-12.938-.027-4.085-.008-3.192-.016-3.285c.156-3.425.273-3.463 3.706-3.614"/><path fill="#F1F0F0" d="m863 55 28 1v27c-2.698 1.349-4.653 1.016-7.664.879l-3.399-.147-3.562-.17-3.586-.158Q868.394 83.21 864 83c-1.06-3.178-1.115-5.426-1.098-8.762l.008-3.053.028-3.873z"/><path fill="#FDFDFD" d="M558 0h27v28h-27z"/><path fill="#F2F0F0" d="m839.5 1197.886 3.285.016 3.192.008 4.086.027L863 1198v28h-27l-.062-13.438-.028-4.243-.008-3.315-.016-3.412c.15-3.433.189-3.55 3.614-3.706"/><path fill="#F2F1F0" d="M1086 976v27h-28l-.062-12.375-.028-3.9-.008-3.06-.016-3.143C1058 978 1058 978 1059 976c8.716-2.017 18.203-.677 27 0"/><path fill="#F2F0F0" d="m1089.592 947.886 3.412.016 3.315.008 4.243.027L1114 948v27h-28l-.063-12.938-.027-4.085-.008-3.192-.016-3.285c.156-3.425.273-3.463 3.706-3.614M1034.5 166.886l3.285.016 3.192.008 4.086.027L1058 167v28h-27l-.062-13.438-.028-4.243-.008-3.315-.016-3.412c.15-3.433.189-3.55 3.614-3.706"/><path fill="#FDFDFD" d="m1201.592 1142.886 3.412.016 3.315.008 4.243.027L1226 1143v27l-13.438.062-4.243.028-3.315.008-3.412.016C1199 1170 1199 1170 1198 1169c-.1-1.842-.13-3.687-.133-5.531l-.004-3.395.012-3.574-.012-3.574.004-3.395.004-3.138c.18-3.347.356-3.36 3.721-3.507M1159.375 362.375 1170 363v27h-27c-1.125-10.125-1.125-10.125-1.098-13.598l.01-2.236.025-2.228.014-2.334q.02-2.802.049-5.604c5.807-2.596 11.194-2.023 17.375-1.625M808 1143h27c.865 3.46 1.117 5.916 1.098 9.422l-.008 2.8-.028 3.528L836 1170h-28z"/><path fill="#F1F0F0" d="M1058 56c.029 4.48.047 8.958.063 13.438l.025 3.876.01 3.682.016 3.412C1058 83 1058 83 1057 84c-2.102.102-4.208.13-6.312.125l-3.489.008c-5.41-.171-10.805-.683-16.199-1.133V56c9.282-.844 17.713-.846 27 0M1201.592 501.886l3.412.016 3.315.008 4.243.027L1226 502v28l-27-1c-1.138-13.662-1.138-13.662-1.125-19.688l-.008-3.574c.18-3.696.18-3.696 3.725-3.852"/><path fill="#FDFDFD" d="m977.592 83.886 3.412.016 3.682.01 3.876.025 3.89.014q4.773.018 9.548.049c1.422 2.844 1.132 5.264 1.125 8.437l.008 3.497c-.165 5.033-.677 10.05-1.133 15.066h-27c-1.127-10.143-1.127-10.143-1.133-13.563l-.004-2.222.012-2.215-.012-2.309c.012-6.642.012-6.642 3.729-6.805M343.543 55.121l3.252.147 3.392.17 3.428.158q4.192.194 8.385.404c1.096 5.916.938 11.448.563 17.438l-.159 2.794Q362.212 79.617 362 83c-19.718 2.427-19.718 2.427-27 0V56c3.193-1.064 5.204-1.038 8.543-.879"/><path fill="#F2F0F0" d="M1171 753h27v27h-27c-.716-3.582-1.128-6.248-1.133-9.793l-.004-2.658.012-2.736-.012-2.772.004-2.646.004-2.411C1170 755 1170 755 1171 753M1171 307h27c.03 6.652.03 6.652.063 13.438l.027 4.243.008 3.315.016 3.412C1198 334 1198 334 1197 335c-1.757.1-3.518.13-5.277.133l-3.244.004-3.417-.012-3.404.012-3.248-.004-2.996-.004C1173 335 1173 335 1171 334z"/><path fill="#FDFDFD" d="m1016.816 55.121 2.147.13 2.6.187L1030 56v27l-7.562.5-2.339.158c-11.51.74-11.51.74-17.099-.658V56c10.125-1.125 10.125-1.125 13.816-.879"/><path fill="#F2F0F0" d="M140 948h27v27l-12.937.563c-1.349.06-2.697.122-4.086.185l-3.192.13-3.285.144C141 976 141 976 140 975c-.088-2-.107-4.002-.098-6.004l.008-3.315.028-4.244z"/><path fill="#F8FAFD" d="M112 809c2.323 3.485 3.808 7.14 5.375 11l.949 2.313A255 255 0 0 1 123.125 835c1.507 4.269 3.448 8.05 5.723 11.957 1.64 2.908 2.857 5.968 4.152 9.043a559 559 0 0 0 4.11 7.668c1.004 2.63.867 3.741-.11 6.332l-2-6-24 1q-.036-11.24-.055-22.48-.008-3.825-.02-7.65c-.013-3.66-.018-7.322-.023-10.983l-.015-3.466v-3.215l-.007-2.833C111 812 111 812 112 809"/><path fill="#E7EBF2" d="M76 581h1l.031 2.425q.148 11.385.308 22.77.084 5.85.158 11.701.073 5.661.156 11.321.03 2.145.056 4.291c.093 7.648.327 15.238 1.077 22.854.342 4.212.298 8.416.214 12.638-2.501 1.25-4.003 1.03-6.79.879l-2.85-.147-2.985-.17-3.008-.158Q59.683 669.21 56 669c-.029-4.48-.047-8.958-.062-13.437l-.026-3.877-.01-3.682-.016-3.412C56 642 56 642 57 641h18z"/><path fill="#E9ECF2" d="M613 28h28v20l5 1v1q-8.746.217-17.493.427l-5.928.146c-11.863.295-23.712.504-35.579.427v-1c8.7-.797 17.264-1.096 26-1z"/><path fill="#EDF1F6" d="M752 1155q.039 3.468.063 6.938l.035 3.902C752 1169 752 1169 751 1170c-1.927.087-3.857.107-5.785.098l-3.545-.01-3.732-.025-3.745-.014q-4.597-.018-9.193-.049l-1 2-2-1c-2.577-.132-5.132-.21-7.71-.246l-4.712-.1q-3.716-.072-7.432-.13c-2.39-.04-4.78-.092-7.17-.145l-2.238-.026c-3.786-.09-6.466-.439-9.738-2.353-3.05-.241-3.05-.241-6.25-.125l-3.266.055-2.484.07v-1l2.461-.288c24.112-2.847 48.176-6.078 71.922-11.232C748 1155 748 1155 752 1155"/><path fill="#FBFBFD" d="M390 1116c4.32.565 7.793 1.617 11.73 3.469l3.182 1.48 3.276 1.551q3.24 1.518 6.48 3.031l2.884 1.362c2.503 1.183 2.503 1.183 5.448 2.107v2l-4 1-1 10c-2.968.99-4.938 1.129-8.035 1.133l-2.951.004-3.077-.012-3.087.012-2.948-.004-2.703-.004C393 1143 393 1143 391 1142c-1.752-8.363-1.103-17.498-1-26"/><path fill="#FDFDFD" d="m58.858 612.886 2.396.016 2.33.008 2.978.027L76 613v30l-1-2H56q-.04-6.719-.063-13.438l-.025-3.876-.01-3.682-.016-3.412c.155-3.533.155-3.533 2.972-3.706"/><path fill="#FCFDFD" d="m1177 557 21 1v27l-20 1c-.626-9.703-1.123-19.274-1-29"/><path fill="#EFF0F2" d="M308 1067c3.226.493 5.441 1.765 8.117 3.582l2.34 1.576 2.418 1.655 2.395 1.619q2.308 1.56 4.612 3.129A923 923 0 0 0 336 1084l-1 3h-28c-1.028-4.114-.942-7.529-.625-11.687l.133-2.088c.36-5.093.36-5.093 1.492-6.225"/><path fill="#EAEDF1" d="m755.592 55.886 3.412.016 3.682.01 3.876.025 3.89.014q4.773.018 9.548.049.04 2.656.062 5.312l.036 2.989C780 67 780 67 779 70l1 2-2.902-.734C767.088 68.743 757.054 66.339 747 64v-1h5l-.063-2.938c.083-4.02.083-4.02 3.655-4.176"/><path fill="#ECF3FD" d="M92 473c.428 8.196-1.19 15.593-3 23.563q-.435 1.96-.867 3.923Q87.078 505.246 86 510h-1c-2.812-11.849-2.717-23.983-1-36 6.875-1 6.875-1 8-1"/><path fill="#EFF0F2" d="m85 724 3 1c.879 2.95.879 2.95 1.563 6.688.677 3.625 1.343 7.04 2.55 10.527 1.131 3.552.61 6.173-.113 9.785h-8c-.225-4.291-.427-8.583-.625-12.875l-.195-3.707-.157-3.535-.158-3.27C83 726 83 726 85 724"/><path fill="#E8ECF3" d="M112 809c2.392 3.588 3.874 7.271 5.5 11.25l.934 2.238c1.829 4.452 3.335 8.86 4.566 13.512h-11q-.29-5.906-.562-11.812l-.17-3.393-.147-3.252-.143-3C111 812 111 812 112 809"/><path fill="#F5F8FD" d="m309.95 138.886 2.523.016 2.724.01 2.866.025 2.876.014q3.53.018 7.061.049a285 285 0 0 1-10.625 8.187l-2.852 2.106C312 151 312 151 309 152l-2-1a920 920 0 0 1-.062-5.438l-.036-3.058c.135-3.448.135-3.448 3.047-3.618"/><path fill="#ECF4FD" d="M1113 871h1v21l-12 1c1.302-3.255 2.533-6.155 4.164-9.207l1.211-2.275 1.25-2.33 1.273-2.39q1.548-2.9 3.102-5.798"/><path fill="#ADCFFD" d="M588 1168h77v1l-2.371.148-3.067.227c-1.009.07-2.018.14-3.058.21-.826.138-1.653.274-2.504.415l-1 2h-12v-1l-3.25-.076q-6.081-.143-12.161-.296-2.61-.065-5.222-.125c-10.814-.253-21.58-.671-32.367-1.503z"/><path fill="#6EA6FC" d="M1178 596h1c.262 19.796-.257 39.266-2 59h-1q-.29-3.968-.562-7.937l-.17-2.288c-.13-1.922-.203-3.849-.268-5.775l1-1c.232-3.1.404-6.181.535-9.285l.13-2.82q.204-4.48.398-8.957.136-3.03.275-6.057.338-7.44.662-14.881"/><path fill="#D4E0F3" d="m697 1165-1 5q-2.124.079-4.25.125l-2.39.07C687 1170 687 1170 685.093 1169c-2.857-1.364-5.198-1.193-8.344-1.125l-3.266.055-2.484.07v-1q4.25-.507 8.5-1l2.398-.29c5.072-.581 9.997-.804 15.102-.71"/><path fill="#CFDCF2" d="M558 1165c3.167.14 6.333.289 9.5.438l2.688.119c5.318.254 10.538.71 15.812 1.443v1h-14v1c-4.763.953-9.167 1.083-14 1z"/><path fill="#2B75FB" d="M868 730h1q.074 7.498.11 14.996.015 2.548.04 5.095c.025 2.45.037 4.9.045 7.35l.032 2.277c0 4.8-.595 8.75-2.227 13.282l-2 2 .402-2.988c1.766-13.968 2.213-27.947 2.598-42.012"/><path fill="#E6EFFB" d="M1139 391h3q.254 3.313.5 6.625l.281 3.727c.194 3.228.259 6.415.219 9.648-2.003-3.004-2.493-4.71-3.125-8.187l-.508-2.731L1139 398h-2l-1-5h2z"/><path fill="#EFF6FD" d="M820 84h16v7c-5.449-1.72-10.712-3.847-16-6z"/><path fill="#F7F7F6" d="M83 344h1c1.18 15.068.779 29.916 0 45h-1v-26h-6v-1h6z"/><path fill="#F6F8FC" d="M199.563 250.938 203 251c-1.67 3.948-4.18 6.818-7 10h-1q-.04-2.22-.062-4.437l-.036-2.497c.17-3.6.924-3.063 4.66-3.129"/><path fill="#E8EBF4" d="M140 335h7l-6 12h-1z"/><path fill="#3079FC" d="M756 578c8.137.16 14.129 3.988 21 8v2c-4.843-1.494-9.314-3.45-13.875-5.625l-2.086-.984A1895 1895 0 0 1 756 579z"/><path fill="#CCDEF7" d="m657.438 1167.938 2.216.013q2.673.02 5.346.049v1l-2.371.148-3.067.227c-1.009.07-2.018.14-3.058.21-.826.138-1.653.274-2.504.415l-1 2h-12l1-3c5.202-.868 10.17-1.125 15.438-1.062"/><path fill="#F7F6F6" d="M111 34h1v21l4 1h-4v16h-1c-1.087-12.76-.83-25.226 0-38"/><path fill="#1A6FFC" d="m298 160 1 3-1.758 1.355c-3.617 2.8-7.217 5.592-10.68 8.583C284 175 284 175 282 175c1.326-3.038 2.629-4.79 5.258-6.797l1.894-1.465 1.973-1.488 1.996-1.535c1.621-1.245 3.25-2.481 4.879-3.715"/><path fill="#F7F6F6" d="M974 110c2 2 2 2 2.243 4.702l-.013 3.407-.005 3.727-.038 3.914-.001 3.867c-.027 5.59-.143 10.876-1.186 16.383h-1v-34l-2-1z"/><path fill="#E0ECF9" d="m1001 1019 1 3-1.496 1.46-1.942 1.915-1.933 1.898c-1.708 1.644-1.708 1.644-2.629 3.727-2.314.73-4.648 1.401-7 2z"/><path fill="#ECEEF0" d="M365.848 110.902 372 111l1 2q-1.935 1.007-3.875 2l-2.18 1.125C365 117 365 117 363 117a100 100 0 0 1 0-5c1-1 1-1 2.848-1.098"/><path fill="#2F76FA" d="M535.375 1158.938c1.59.291 1.59.291 3.21.59L541 1160l-1 2-17-2v-1c4.454-.956 7.908-.906 12.375-.062"/><path fill="#F1F6FC" d="M1168 713c1.5 1.125 1.5 1.125 3 3 .415 3.322.637 5.169-1.437 7.875C1168 725 1168 725 1167 725c-.082-4.161.018-7.947 1-12"/><path fill="#F7F6F6" d="M1002 100h1c1.35 10.412.709 20.572 0 31h-1c-1.383-21.723-1.383-21.723 0-31"/><path fill="#DBE5F8" d="M85 496c2 2 2 2 2.188 5.313-.155 3.034-.475 5.744-1.188 8.687h-1c-.39-1.768-.762-3.54-1.125-5.312l-.633-2.989C83 499 83 499 85 496"/><path fill="#F7F6F6" d="M111 939h1v8h5v1h-5v6h-1v-6h-10v-1h10z"/><path fill="#4D8AFA" d="M79 661h1l.438 3.25c.429 3.467.429 3.467 1.124 5.625.565 2.74.298 5.1 0 7.875l-.308 2.984L81 683h-1c-.912-7.358-1.115-14.59-1-22"/><path fill="#2C77FB" d="M128 372c1.403 3.189.904 4.253-.375 7.625A401 401 0 0 1 125 385h-2a932 932 0 0 1 1.375-4.25l.773-2.39c.804-2.226 1.75-4.27 2.852-6.36"/><path fill="#F7F6F6" d="M111 75h1c1.282 8.117.698 15.853 0 24h-1V84l-2-1h2z"/><path fill="#2874FC" d="M440 762c7.373 2.346 7.373 2.346 10 4l1 3c-7.373-2.346-7.373-2.346-10-4z"/><path fill="#62A0FD" d="M622 417v1l-2.773.402-3.602.536-3.586.527c-2.946.37-2.946.37-5.039 1.535a76 76 0 0 1-5-1v-1c6.742-1.258 13.135-2.264 20-2"/><path fill="#D4DFF2" d="M890 112c.625 2.563.625 2.563 1 5-3.46-1.25-6.147-2.675-9-5 5.75-1.125 5.75-1.125 8 0"/><path fill="#E8EBF3" d="M1109 335h5v6l-2 1c-3-4.75-3-4.75-3-7"/><path fill="#CDDFF8" d="M1143 802h1q.079 2.187.125 4.375l.07 2.46C1144 811 1144 811 1142 813h-2z"/><path fill="#F7F6F6" d="M111 269h1v9l3 1h-3v5h-1v-5l-4-1h4z"/><path fill="#E3ECF8" d="m1085 919 2 3-5 6-2-1z"/><path fill="#5B97FB" d="M81 683c2.192 2.367 2.987 3.517 3.074 6.797l-.386 2.953-.364 2.984L83 698h-1c-.847-5.08-1.09-9.848-1-15"/><path fill="#3781FD" d="M674 933v1l-2.312.438c-2.77.525-2.77.525-5.688 1.562a100 100 0 0 1-6-1v-1c4.763-.953 9.167-1.083 14-1"/><path fill="#2072FD" d="M693 930v3l-10-1v-1c3.406-.778 6.508-1.1 10-1"/><path fill="#F7F6F6" d="m201.75 82.438 3.547.308L208 83v1a519 519 0 0 1-6.25.625l-3.516.352c-3.173.023-4.617-.28-7.234-1.977 3.684-1.231 6.915-.908 10.75-.562"/><path fill="#307EFB" d="m458 910 3.875.875 2.18.492C466 912 466 912 468 914c-3.47-.458-6.674-.891-10-2z"/><path fill="#5493FC" d="M704 559h8v2l3 1c-2 1-2 1-4.164.441l-2.461-.879-2.477-.87L704 560z"/><path fill="#DDEBFB" d="M224 223h4c-1.37 3.161-1.99 3.993-5 6z"/><path fill="#E6EEF9" d="m970 167 4 1-1 4-4-2z"/><path fill="#2379FC" d="m762 67 11 2v1h-10z"/><path fill="#3C81FA" d="M555 1163v1c-8.571.286-8.571.286-12-2 4.52-1.456 7.516-.27 12 1"/><path fill="#C4DEFE" d="M763 1153c-3.089 2.06-3.71 2.239-7.187 2.125L752 1155c4-2.069 6.564-3.377 11-2"/><path fill="#DFECFB" d="m919 1083 2 1-2 5-6-1c1.933-2.025 3.632-3.421 6-5"/><path fill="#F7F6F6" d="M111 103h1c.756 5.235 1.206 9.773 0 15h-1c-1.002-5.346-.849-9.624 0-15"/></svg>